# xmcd
#
# Track frame offsets: 
#        150
#        10932
#        20870
#        34540
#        53100
#        72755
#        83325
#        98987
#        112845
#        124425
#        148165
#        168102
#        181592
#        202315
#        225027
#        247172
#        251232
#        271260
#        290090
#
# Disc length: 3987 seconds
#
# Revision: 2
# Processed by: cddbd v1.5.2PL0 Copyright (c) Steve Scherf et al.
# Submitted via: ExactAudioCopy v0.99pb5
#
DISCID=090f9113
DTITLE=Supersuckers - Must've Been Live
DYEAR=2002
DGENRE=Country
TTITLE0=Dead In The Water
TTITLE1=Good Livin'
TTITLE2=Roamin' 'Round
TTITLE3=Roadworn And Weary
TTITLE4=The Captain
TTITLE5=Hangin' Out With Me
TTITLE6=Barricade
TTITLE7=Drivin' Nails In My Coffin
TTITLE8=Cowpoke
TTITLE9=Don't Go Blue
TTITLE10=Must've Been High
TTITLE11=One Cigarette Away
TTITLE12=Alabama, Louisiana or Maybe Tennessee
TTITLE13=Hungover Together
TTITLE14=Non Addicitive Marijuana
TTITLE15=Ice Cold Beer Only
TTITLE16=The Image Of Me
TTITLE17=Peace In The Valley
TTITLE18=Blow You Away
EXTD=YEAR: 2002
EXTT0=
EXTT1=
EXTT2=
EXTT3=
EXTT4=
EXTT5=
EXTT6=
EXTT7=
EXTT8=
EXTT9=
EXTT10=
EXTT11=
EXTT12=
EXTT13=
EXTT14=
EXTT15=
EXTT16=
EXTT17=
EXTT18=
PLAYORDER=
